<svg xmlns="http://www.w3.org/2000/svg" xmlns:xlink="http://www.w3.org/1999/xlink" viewBox="0 0 100 100" enable-background="new 0 0 100 100"><style type="text/css">.st0{fill:#CCCCCC;} .st1{enable-background:new ;} .st2{clip-path:url(#SVGID_2_);} .st3{clip-path:url(#SVGID_4_);fill:#FFFFFF;} .st4{clip-path:url(#SVGID_6_);} .st5{clip-path:url(#SVGID_8_);fill:#FFFFFF;} .st6{clip-path:url(#SVGID_10_);} .st7{clip-path:url(#SVGID_12_);fill:#FFFFFF;} .st8{clip-path:url(#SVGID_14_);} .st9{clip-path:url(#SVGID_16_);fill:#FFFFFF;} .st10{clip-path:url(#SVGID_18_);} .st11{clip-path:url(#SVGID_20_);fill:#FFFFFF;} .st12{clip-path:url(#SVGID_22_);} .st13{clip-path:url(#SVGID_24_);fill:#FFFFFF;}</style><path class="st0" d="M0 0h100v100h-100z"/><g class="st1"><defs><path id="SVGID_1_" d="M75.3 48.4c.9 0 1.6.7 1.6 1.6v6.5c0 .9-.7 1.6-1.6 1.6h-3.2l1.6 1.6v-13l-1.6 1.6h3.2zm0-3.3h-4.800000000000001v16.2h4.800000000000001c2.6 0 4.7-2.2 4.7-4.9v-6.4c0-2.7-2.1-4.9-4.7-4.9z"/></defs><clipPath id="SVGID_2_"><use xlink:href="#SVGID_1_" overflow="visible"/></clipPath><g class="st2"><defs><path id="SVGID_3_" d="M20 12.5h60v75h-60z"/></defs><clipPath id="SVGID_4_"><use xlink:href="#SVGID_3_" overflow="visible"/></clipPath><path class="st3" d="M57.5 31.7h35.6v43.1h-35.6z"/></g><defs><path id="SVGID_5_" d="M54.7 76.1h7.9c7 0 12.6-5.8 12.6-13v-3.3h-3.2v3.2c0 5.5-4.2 9.8-9.5 9.8h-7.9v3.3z"/></defs><clipPath id="SVGID_6_"><use xlink:href="#SVGID_5_" overflow="visible"/></clipPath><g class="st4"><defs><path id="SVGID_7_" d="M20 12.5h60v75h-60z"/></defs><clipPath id="SVGID_8_"><use xlink:href="#SVGID_7_" overflow="visible"/></clipPath><path class="st5" d="M41.7 46.4h46.6v43.1h-46.6z"/></g><defs><path id="SVGID_9_" d="M51.6 79.3c2.6 0 4.7-2.2 4.7-4.9s-2.1-4.9-4.7-4.9h-3.2c-2.6 0-4.7 2.2-4.7 4.9s2.1 4.9 4.7 4.9h3.2zm0-3.2h-3.2c-.9 0-1.6-.7-1.6-1.6 0-.9.7-1.6 1.6-1.6h3.2c.9 0 1.6.7 1.6 1.6 0 .8-.8 1.6-1.6 1.6z"/></defs><clipPath id="SVGID_10_"><use xlink:href="#SVGID_9_" overflow="visible"/></clipPath><g class="st6"><defs><path id="SVGID_11_" d="M20 12.5h60v75h-60z"/></defs><clipPath id="SVGID_12_"><use xlink:href="#SVGID_11_" overflow="visible"/></clipPath><path class="st7" d="M30.6 56.2h38.7v36.6h-38.7z"/></g><defs><path id="SVGID_13_" d="M22.5 51.6l6.3 3.1 2.3 1.1v-15.6l-1.5 1.6c.2 0 .7 0 1.3-.1 1-.1 2.1-.2 3.3-.4 3.4-.5 6.8-1.3 9.9-2.4 5.2-1.8 9.3-4.2 11.9-7.5l-2.6-.2c1.4 2.4 3.3 4.4 5.5 6.1 1.7 1.4 3.6 2.5 5.5 3.3 1.1.5 2 .9 2.5 1l-1.1-1.6v15.6l2.3-1.2 4.7-2.4-1.4-2.9-4.7 2.4 2.3 1.5v-14l-1.1-.3c-.1 0-.3-.1-.6-.2-.5-.2-1-.4-1.6-.7-1.7-.8-3.3-1.8-4.9-3-1.9-1.5-3.5-3.2-4.7-5.2l-1.2-1.9-1.4 1.7c-2.2 2.7-5.8 4.9-10.5 6.5-3 1-6.2 1.7-9.4 2.2-1.1.2-2.2.3-3.1.4-.6.1-.9.1-1.1.1l-1.5.1v14.5l2.3-1.5-6.3-3.1-1.4 3z"/></defs><clipPath id="SVGID_14_"><use xlink:href="#SVGID_13_" overflow="visible"/></clipPath><g class="st8"><defs><path id="SVGID_15_" d="M20 12.5h60v75h-60z"/></defs><clipPath id="SVGID_16_"><use xlink:href="#SVGID_15_" overflow="visible"/></clipPath><path class="st9" d="M9.4 14.3h76.4v55h-76.4z"/></g><defs><path id="SVGID_17_" d="M75.3 38.6c-.6-14.3-8.4-22.5-21.5-22.8l-3.2-3.3h-.6c-20.1 0-27.8 13.4-28.4 26.1v10.9c-1.1 1.3-1.6 2.9-1.6 5.1 0 3.8 2.4 6.8 5.8 7.7 4.1 11.1 10.9 25.3 22.6 25.3 6.3 0 11.2-4.2 15-9.8h-4.1000000000000005c-3.5 4.4-7.1 6.5-11.1 6.5-7.6 0-14.1-7.8-20.1-24.1l-.3-1-.9-.2c-2.1 0-3.8-2-3.8-4.4 0-1.5.3-2.6.9-3.3l.5-.5v-12.2c.9-16.5 13.3-22.7 24.8-22.8l3.2 3.3h.6c15.8 0 18.6 12.2 18.9 19.6v8.2c0 1 .8 1.6 1.6 1.6.9 0 1.6-.8 1.6-1.6v-8.3z"/></defs><clipPath id="SVGID_18_"><use xlink:href="#SVGID_17_" overflow="visible"/></clipPath><g class="st10"><defs><path id="SVGID_19_" d="M20 12.5h60v75h-60z"/></defs><clipPath id="SVGID_20_"><use xlink:href="#SVGID_19_" overflow="visible"/></clipPath><path class="st11" d="M7-.9h81.4v101.8h-81.4z"/></g><defs><path id="SVGID_21_" d="M73.1 61.4c.8-.5.9-1.5.6-2.3-.5-.8-1.4-1-2.2-.7-.5.4-1.1.6-1.8.6l-.9.2-.3 1c-1.6 4.2-3.2 7.8-4.7 10.9 1.9-.3 3.6-1.1 4.9-2.6.9-2.1 1.7-4.2 2.5-6.2.6-.2 1.2-.6 1.9-.9z"/></defs><clipPath id="SVGID_22_"><use xlink:href="#SVGID_21_" overflow="visible"/></clipPath><g class="st12"><defs><path id="SVGID_23_" d="M20 12.5h60v75h-60z"/></defs><clipPath id="SVGID_24_"><use xlink:href="#SVGID_23_" overflow="visible"/></clipPath><path class="st13" d="M50.7 44.9h36.2v39.5h-36.2z"/></g></g></svg>