<?xml version="1.0" encoding="UTF-8" standalone="no"?>
<svg width="73px" height="73px" viewBox="0 0 73 73" version="1.1" xmlns="http://www.w3.org/2000/svg" xmlns:xlink="http://www.w3.org/1999/xlink">
    <!-- Generator: Sketch 3.8.1 (29687) - http://www.bohemiancoding.com/sketch -->
    <title>user male</title>
    <desc>Created with Sketch.</desc>
    <defs>
        <ellipse id="path-1" cx="32.4611691" cy="32.4611691" rx="32.4611691" ry="32.4611691"></ellipse>
        <mask id="mask-3" maskContentUnits="userSpaceOnUse" maskUnits="objectBoundingBox" x="0" y="0" width="64.9223382" height="64.9223382" fill="white">
            <use xlink:href="#path-1"></use>
        </mask>
        <mask id="mask-4" maskContentUnits="userSpaceOnUse" maskUnits="objectBoundingBox" x="-4" y="-4" width="72.9223382" height="72.9223382">
            <rect x="-4" y="-4" width="72.9223382" height="72.9223382" fill="white"></rect>
            <use xlink:href="#path-1" fill="black"></use>
        </mask>
        <path d="M59.0265732,61.4716662 C57.4581511,57.9448225 49.8028604,55.6112067 44.7163466,53.4202416 C39.6299147,51.2293582 40.3251735,49.9005959 40.1422796,48.08368 C40.093775,47.5994527 40.0766799,47.0568236 40.0783158,46.5208199 C41.5872728,45.0675653 42.8262241,43.184559 43.656445,41.0420984 C43.656445,41.0420984 43.7049495,40.920878 43.7186911,40.8839884 C43.9132,40.3661432 44.0866875,39.8262952 44.2354729,39.2758955 C45.4011357,39.0456422 46.0804445,37.8083268 46.3404713,36.6635218 C46.602134,36.200234 47.1475441,35.05821 47.0224793,33.7624929 C46.9100928,32.5978934 46.5393153,31.871307 46.0627767,31.4283862 C47.9744114,29.0716223 49.2491889,23.6909732 43.676812,20.9607326 C43.676812,20.9607326 42.5992425,13.1990264 30.2249438,14.0678546 C21.200075,15.2208391 20.2531324,21.8002781 20.0205888,21.9457099 C16.9598139,23.8601256 16.7477191,30.0560271 18.4996078,31.9533476 C18.2345915,32.388007 18.0395918,32.9741511 17.9636041,33.7624929 C17.8385393,35.05821 18.3833769,36.200234 18.6456121,36.6635218 C18.9094833,37.8281212 19.608014,39.0891572 20.811139,39.2875105 C20.9609877,39.8406093 21.1361929,40.383811 21.3334011,40.9060731 C21.3460793,40.9396091 21.3599027,40.9732269 21.3736443,41.0068447 L21.3912302,41.0519956 C22.2594858,43.2876209 23.5722981,45.2416254 25.173193,46.7174555 C25.1704119,47.1890864 25.1522534,47.6594903 25.1098835,48.0842526 C24.9269078,49.9011684 25.4618481,51.2293582 20.3754162,53.4208141 C15.2889842,55.6117792 7.63361174,57.9459677 6.06518958,61.4722388 C4.4968492,64.9985916 5.1237273,67.0738166 5.1237273,67.0738166 L59.9641911,67.0738166 C59.9631278,67.073244 60.595568,64.9980191 59.0265732,61.4716662" id="path-5"></path>
        <mask id="mask-6" maskContentUnits="userSpaceOnUse" maskUnits="objectBoundingBox" x="-1" y="-1" width="57.2117321" height="55.1668531">
            <rect x="4" y="13" width="57.2117321" height="55.1668531" fill="white"></rect>
            <use xlink:href="#path-5" fill="black"></use>
        </mask>
    </defs>
    <g id="2-portefeuille" stroke="none" stroke-width="1" fill="none" fill-rule="evenodd">
        <g id="08-portefeuille-geconsolideerde-view-t" transform="translate(-179.000000, -2813.000000)">
            <g id="Group" transform="translate(76.000000, 2665.000000)">
                <g id="user-male" transform="translate(107.000000, 152.000000)">
                    <mask id="mask-2" fill="white">
                        <use xlink:href="#path-1"></use>
                    </mask>
                    <g id="Mask">
                        <use stroke="#28648A" mask="url(#mask-3)" stroke-width="2" fill="#FFFFFF" fill-rule="evenodd" xlink:href="#path-1"></use>
                        <use stroke="#FFFFFF" mask="url(#mask-4)" stroke-width="8" xlink:href="#path-1"></use>
                    </g>
                    <g id="Imported-Layers" mask="url(#mask-2)">
                        <use fill-opacity="0.2" fill="#28648A" fill-rule="evenodd" xlink:href="#path-5"></use>
                        <use stroke="#28648A" mask="url(#mask-6)" stroke-width="2" xlink:href="#path-5"></use>
                    </g>
                </g>
            </g>
        </g>
    </g>
</svg>